<?xml version="1.0" standalone="no"?>
<!DOCTYPE svg PUBLIC "-//W3C//DTD SVG 20010904//EN"
 "http://www.w3.org/TR/2001/REC-SVG-20010904/DTD/svg10.dtd">
<svg version="1.0" xmlns="http://www.w3.org/2000/svg"
 width="626.000000pt" height="663.000000pt" viewBox="0 0 626.000000 663.000000"
 preserveAspectRatio="xMidYMid meet">

<g transform="translate(0.000000,663.000000) scale(0.100000,-0.100000)"
fill="#000000" stroke="none">
<path d="M4065 6602 c-30 -19 -82 -74 -120 -127 l-21 -28 -39 26 c-35 24 -65
34 -65 23 0 -2 7 -17 15 -32 30 -57 12 -102 -27 -68 -18 17 -19 26 -13 79 l7
60 -29 -24 c-15 -14 -40 -38 -55 -55 l-28 -30 0 37 c0 38 20 87 48 120 8 9 10
17 4 17 -11 0 -67 -43 -90 -70 -8 -8 -11 -9 -7 -2 10 19 -6 14 -31 -9 l-22
-21 -44 30 c-52 36 -115 55 -137 42 -15 -9 -15 -9 0 -10 24 0 98 -57 111 -85
15 -33 3 -75 -22 -75 -10 0 -21 -4 -25 -9 -9 -16 -79 0 -97 21 -28 31 -41 95
-30 140 5 21 6 38 2 38 -16 0 -50 -68 -50 -99 0 -60 -29 -29 -31 32 0 27 -2
29 -9 12 -5 -11 -9 -77 -9 -146 -1 -112 -3 -128 -21 -144 -18 -17 -21 -17 -45
-1 -24 16 -34 32 -49 80 -11 34 -13 12 -7 -75 6 -81 5 -87 -17 -103 -22 -17
-26 -16 -98 6 -57 17 -91 36 -140 76 -35 29 -64 49 -64 45 0 -5 11 -30 25 -57
14 -27 25 -57 25 -67 0 -9 7 -39 16 -66 l16 -50 -31 -31 c-17 -17 -31 -41 -31
-53 0 -22 1 -22 14 -4 29 40 124 13 149 -42 9 -21 8 -27 -7 -39 -10 -7 -38
-16 -62 -20 -25 -3 -55 -15 -69 -26 -30 -23 -34 -43 -6 -28 25 13 61 13 61 0
0 -5 -6 -10 -14 -10 -16 0 -81 -58 -74 -65 3 -3 19 0 36 6 26 9 39 7 79 -12
26 -13 54 -23 61 -22 19 1 45 -63 38 -92 -5 -20 -24 -34 -81 -60 -44 -21 -81
-32 -92 -28 -14 5 -15 3 -6 -7 6 -7 24 -14 40 -15 15 -2 46 -11 69 -20 39 -16
40 -18 52 -86 7 -38 12 -91 13 -117 0 -40 16 -106 18 -76 1 5 7 19 15 30 14
18 15 18 26 -11 10 -27 12 -28 22 -12 7 13 13 15 22 8 14 -12 13 -31 -5 -127
-11 -61 -11 -62 22 -118 31 -52 55 -74 67 -61 3 3 -2 13 -11 23 -20 22 -22 83
-5 100 8 8 13 55 15 135 3 147 6 160 39 190 20 19 26 33 25 63 -5 198 -2 253
13 282 20 38 23 38 52 11 13 -12 34 -23 48 -24 40 -5 46 -13 46 -71 0 -67 8
-83 77 -156 29 -31 60 -72 68 -90 l14 -33 1 36 c0 22 -17 72 -44 130 -24 52
-46 106 -50 122 -6 24 -3 27 17 27 40 0 196 -139 216 -193 15 -40 14 -60 -3
-54 -10 4 -17 -4 -21 -24 -4 -16 -10 -29 -15 -29 -4 0 -6 -9 -3 -20 3 -11 9
-17 14 -14 5 3 9 1 9 -4 0 -5 -14 -12 -31 -16 -25 -5 -30 -10 -24 -23 4 -10
10 -37 12 -60 5 -35 3 -43 -11 -43 -11 0 -16 -9 -16 -29 0 -37 16 -48 39 -27
10 9 27 16 39 16 13 0 22 6 22 15 0 26 17 16 49 -27 17 -23 31 -37 31 -32 0
29 -31 109 -54 139 -27 35 -33 55 -16 55 6 0 15 -12 21 -27 5 -14 23 -41 39
-60 17 -19 30 -44 30 -58 0 -13 4 -35 10 -50 12 -33 16 -113 5 -123 -4 -4 -10
-2 -12 4 -2 6 -16 9 -31 7 -16 -3 -22 -1 -15 4 28 20 19 80 -18 114 -39 36
-49 31 -20 -9 12 -17 21 -42 21 -57 0 -26 -2 -27 -36 -20 -20 3 -46 12 -58 18
-34 19 -95 79 -118 115 -16 26 -23 30 -34 21 -22 -18 -69 40 -84 103 -7 29
-15 57 -17 61 -3 4 -20 -6 -39 -23 -19 -16 -46 -33 -59 -36 -31 -8 -33 -24 -2
-18 20 4 20 3 -3 -7 -50 -22 -54 -26 -62 -54 -6 -24 -2 -36 27 -71 26 -32 30
-41 16 -37 -12 3 -20 -2 -24 -16 -3 -14 0 -21 9 -21 8 0 14 -4 14 -10 0 -5 7
-10 15 -10 8 0 28 -20 45 -45 40 -58 66 -75 116 -75 23 0 66 -7 95 -16 30 -8
71 -20 92 -27 45 -13 92 0 92 26 0 50 72 56 93 7 14 -31 15 -212 2 -330 -6
-51 -4 -69 8 -82 14 -16 13 -18 -6 -18 -15 0 -28 12 -43 43 -12 23 -23 43 -24
45 -1 2 -29 4 -61 6 -33 2 -97 16 -144 31 -47 15 -91 28 -97 30 -29 9 3 34 81
63 46 18 88 32 95 32 6 0 16 11 21 25 16 41 26 33 58 -45 l10 -25 11 29 c9 23
9 33 -4 53 -23 35 -38 37 -110 19 -35 -9 -89 -16 -118 -16 -30 0 -71 -7 -90
-15 -20 -8 -51 -15 -69 -15 -19 0 -44 -7 -56 -16 -13 -9 -29 -13 -37 -10 -8 3
-15 2 -15 -2 1 -16 67 -107 80 -110 7 -2 20 -11 27 -20 13 -15 13 -15 8 5 -3
12 -1 24 5 28 5 3 10 2 10 -2 0 -5 6 -17 13 -27 14 -19 51 -12 40 8 -3 6 15
-9 40 -33 52 -50 112 -156 122 -216 15 -87 36 -133 80 -174 25 -23 51 -41 58
-41 22 0 47 -34 47 -63 0 -18 13 -40 40 -66 22 -21 40 -43 40 -48 0 -5 -15
-24 -34 -42 -30 -29 -41 -33 -82 -33 -55 1 -71 14 -150 119 -30 39 -60 78 -67
85 -19 20 -130 168 -161 215 -16 23 -36 45 -46 48 -23 7 -36 47 -50 143 -6 41
-15 94 -21 118 -9 36 -14 42 -28 35 -9 -5 -52 -11 -95 -13 l-78 -3 -37 60
c-61 99 -182 347 -177 361 7 17 -29 28 -51 15 -13 -7 -23 -3 -40 16 -13 13
-31 23 -40 21 -10 -2 -35 -30 -56 -62 -22 -32 -48 -61 -58 -63 -10 -3 -19 -10
-19 -17 -1 -6 -7 1 -16 16 -29 54 -79 59 -90 9 -21 -102 -49 -203 -65 -241
-36 -81 -63 -135 -82 -164 -11 -15 -21 -42 -23 -60 -8 -80 -13 -106 -29 -135
-9 -17 -20 -29 -25 -26 -5 3 -12 0 -16 -6 -3 -6 -1 -15 7 -19 18 -12 -6 -40
-35 -40 -28 0 -43 -11 -48 -35 -2 -11 -10 -19 -16 -17 -15 3 -16 -14 -2 -23 6
-3 10 -13 10 -22 0 -12 -7 -14 -35 -10 l-36 6 7 -35 c6 -32 2 -39 -45 -86 -50
-50 -58 -70 -23 -62 33 9 58 -25 53 -73 -2 -23 -42 -14 -73 17 -47 47 -77 38
-56 -18 7 -17 20 -33 31 -36 10 -2 21 -14 24 -26 5 -18 8 -19 22 -7 9 8 34 15
56 15 22 1 59 3 83 4 39 3 42 1 42 -22 0 -14 -7 -36 -16 -49 -14 -19 -23 -22
-54 -18 -20 2 -47 -1 -59 -8 -13 -6 -34 -10 -47 -7 -14 2 -24 0 -24 -7 0 -6
-16 -11 -35 -11 -19 0 -35 -4 -35 -10 0 -5 -7 -10 -16 -10 -9 0 -31 -13 -50
-29 -37 -33 -59 -32 -108 3 -25 17 -29 17 -23 3 3 -9 2 -19 -3 -22 -6 -4 -10
-15 -10 -26 0 -11 -4 -18 -10 -14 -5 3 -17 -2 -27 -12 -16 -16 -39 -22 -93
-23 -53 -1 -52 -3 -99 191 -12 48 -21 98 -21 111 0 14 -3 28 -7 31 -8 9 -10
66 -2 61 3 -2 11 8 17 21 7 14 20 25 31 25 11 0 23 5 26 10 3 6 1 10 -6 10
-10 0 -10 3 -2 11 6 6 10 17 7 23 -5 13 106 72 152 81 18 3 39 14 49 25 22 25
121 64 141 56 36 -14 208 92 251 155 15 22 41 57 56 77 l29 37 -84 17 c-201
41 -303 33 -426 -30 -88 -45 -137 -83 -158 -124 -9 -17 -40 -60 -70 -94 -29
-35 -65 -85 -79 -111 -14 -27 -35 -61 -48 -76 -34 -44 -30 -183 12 -344 27
-104 40 -185 24 -145 -11 28 -25 11 -20 -24 6 -36 6 -36 -15 -18 -21 19 -21
19 -9 -4 12 -22 11 -23 -11 -17 -12 4 -34 19 -47 33 -18 20 -23 22 -18 8 17
-43 -28 -169 -48 -136 -11 17 -23 11 -18 -9 3 -10 -1 -22 -8 -26 -17 -11 -39
23 -39 61 0 18 -11 52 -25 75 -13 24 -27 64 -31 88 l-7 44 -28 -54 c-16 -30
-43 -82 -60 -116 -28 -58 -82 -113 -96 -100 -3 4 17 39 44 79 58 86 66 98 60
98 -2 0 -24 -28 -47 -62 -24 -35 -132 -151 -240 -258 -202 -199 -350 -363
-384 -422 -24 -42 -24 -42 126 132 69 80 143 161 164 180 61 57 15 -2 -79
-100 -48 -50 -87 -97 -87 -104 0 -26 -59 -103 -105 -135 -27 -19 -45 -28 -40
-20 18 32 -100 -91 -151 -157 -44 -58 -64 -96 -100 -200 -42 -118 -46 -140
-54 -264 -15 -247 -5 -311 65 -450 55 -109 121 -151 265 -172 148 -22 338 15
502 98 56 28 95 60 175 141 57 57 103 109 103 114 0 5 43 55 96 112 53 56 116
135 140 177 24 41 56 84 72 95 48 35 266 165 269 161 3 -2 0 -30 -6 -62 -17
-96 1 -300 37 -409 17 -49 35 -116 42 -147 6 -32 22 -86 36 -120 62 -158 80
-386 44 -556 -24 -115 -78 -286 -119 -380 -17 -39 -34 -93 -37 -119 -4 -26
-16 -68 -28 -93 -15 -33 -21 -71 -24 -142 -3 -86 -2 -97 15 -102 10 -3 234 -6
498 -6 264 0 494 0 510 0 17 0 403 -1 858 -3 953 -2 840 -17 881 113 13 41 35
98 49 125 14 28 43 94 66 147 49 119 80 165 175 261 l73 74 46 -57 c83 -103
318 -284 452 -349 249 -121 396 -169 479 -155 87 14 186 90 287 220 29 38 44
71 60 135 11 46 40 126 64 176 57 121 79 221 72 327 -4 70 -13 100 -62 216
l-57 134 -5 176 c-4 130 -10 189 -23 230 -10 30 -31 122 -45 205 -15 82 -30
154 -33 160 -3 5 -5 95 -3 199 2 137 6 200 17 224 18 44 18 80 -1 98 -11 11
-15 37 -15 92 0 71 -22 231 -34 251 -3 5 -10 38 -15 74 -6 44 -26 100 -60 171
-28 58 -51 109 -51 111 0 18 -126 189 -156 212 -20 15 -51 40 -69 56 -38 31
-78 34 -214 16 -61 -8 -107 -8 -179 0 -128 15 -168 28 -223 71 -26 20 -62 42
-80 50 -19 7 -52 30 -74 51 -22 21 -89 62 -150 92 -111 55 -146 82 -164 127
-9 23 -10 22 -12 -15 -1 -38 -2 -37 -10 15 -4 30 -6 61 -4 68 5 14 -38 107
-55 117 -14 9 -26 -28 -34 -105 -11 -93 -25 -119 -106 -191 -47 -41 -93 -96
-131 -154 -32 -49 -65 -99 -74 -110 -14 -19 -14 -18 -3 10 7 17 22 44 34 60
31 42 83 149 100 205 8 26 21 53 29 60 13 11 13 7 0 -30 -8 -24 -14 -45 -12
-47 2 -2 17 7 33 19 15 13 35 23 43 23 25 0 59 61 65 118 14 109 39 253 47
269 7 14 6 16 -5 12 -11 -4 -5 20 21 83 l35 88 -17 73 c-9 40 -15 75 -13 78 5
5 35 -105 40 -144 4 -33 21 -32 32 3 5 17 21 55 36 85 41 82 44 104 20 166
-24 65 -24 64 -5 64 8 0 15 6 15 13 0 8 9 22 20 32 11 10 20 22 20 28 0 5 7
24 16 43 14 30 21 34 54 34 23 0 48 -8 64 -21 14 -11 26 -17 26 -12 0 17 -43
89 -63 106 l-22 17 24 20 c26 22 92 27 136 10 l25 -10 -16 33 c-9 17 -30 49
-47 71 -20 26 -33 56 -39 93 -5 31 -14 65 -20 77 -15 28 -17 190 -2 249 11 47
11 48 -9 30 -23 -21 -17 -6 18 42 31 43 44 69 60 123 l14 47 -25 -33 c-37 -46
-103 -82 -152 -82 -46 0 -53 12 -27 46 28 37 8 109 -25 89 -16 -10 -12 1 21
68 26 52 28 59 11 43 -12 -10 -38 -19 -59 -20 -34 -1 -38 2 -46 34 -29 109
-49 170 -55 174 -5 3 -6 -21 -4 -53 4 -62 -11 -90 -27 -49 -28 74 -45 108 -52
108 -4 0 -5 -9 -2 -20 5 -20 -27 -57 -90 -102 l-29 -21 7 34 c4 19 14 46 21
61 8 15 13 40 13 55 -1 21 -3 23 -6 8 -12 -45 -79 -105 -117 -105 -17 0 -16 4
9 30 l29 30 -65 -26 c-35 -14 -70 -31 -78 -37 -10 -9 -19 -5 -37 16 -13 16
-27 39 -30 54 -10 37 20 91 59 108 l32 14 -30 1 c-16 0 -43 -8 -60 -18z m235
-300 c0 -5 -7 -17 -15 -28 -14 -18 -14 -17 -4 9 12 27 19 34 19 19z m200 -681
c13 -71 13 -135 -2 -182 -10 -37 -2 -92 21 -134 10 -18 11 -133 2 -172 l-10
-38 -1 40 c0 22 -3 66 -6 97 -5 53 -7 57 -25 47 -34 -18 -41 -2 -34 84 3 45 8
93 11 107 3 21 1 20 -17 -10 l-20 -35 6 35 c4 19 13 69 21 110 7 41 14 88 14
105 0 26 2 28 15 14 8 -8 19 -39 25 -68z m-640 -210 c15 -30 12 -68 -7 -75
-18 -7 -30 7 -50 62 -12 31 -11 32 17 32 19 0 33 -7 40 -19z m-70 -67 c14 -36
13 -67 -2 -62 -15 5 -29 88 -16 88 5 0 13 -12 18 -26z m126 -255 l-14 -34 -1
48 c-1 27 5 58 12 70 11 21 12 20 15 -14 2 -20 -4 -52 -12 -70z m604 -66 c0
-26 -3 -34 -11 -26 -9 9 -3 63 7 63 2 0 4 -17 4 -37z m-1006 15 c10 -10 11
-17 2 -31 -9 -14 -8 -20 4 -28 11 -8 9 -9 -10 -4 -35 10 -64 40 -57 59 8 19
42 21 61 4z m790 -46 c-6 -9 -20 -19 -30 -21 -15 -3 -16 -1 -6 11 6 8 9 18 5
22 -4 4 -1 11 7 16 21 13 37 -6 24 -28z m-1498 -39 c-11 -11 -19 6 -11 24 8
17 8 17 12 0 3 -10 2 -21 -1 -24z m1049 -23 c3 -5 -1 -10 -9 -10 -8 0 -18 5
-21 10 -3 6 1 10 9 10 8 0 18 -4 21 -10z m-1245 -57 c0 -34 -12 -63 -26 -63
-17 0 -19 51 -2 68 17 17 28 15 28 -5z m174 -86 c7 -43 54 -133 134 -255 41
-62 72 -115 69 -118 -3 -3 -13 7 -23 23 -10 15 -48 75 -86 132 -37 57 -71 115
-74 130 -4 14 -12 32 -18 40 -26 33 -45 119 -29 135 8 7 18 -27 27 -87z m1190
46 c-16 -33 -18 -47 -4 -38 12 7 12 3 4 -19 -13 -33 -27 -16 -21 25 4 34 18
58 34 59 1 0 -5 -12 -13 -27z m18 -95 c-7 -7 -13 -28 -14 -47 l-1 -36 -4 33
c-2 17 -8 32 -14 32 -5 0 -9 5 -9 11 0 6 7 9 15 6 8 -4 17 -2 20 3 4 6 9 10
13 10 3 0 1 -5 -6 -12z m63 -97 c-16 -15 -17 -14 -6 6 6 12 12 34 13 50 1 25
2 24 5 -6 3 -23 -1 -39 -12 -50z m369 -38 c-7 -40 -23 -77 -29 -71 -4 3 0 22
21 96 8 28 14 9 8 -25z m-1783 -35 c13 -35 25 -66 27 -69 4 -9 -92 -39 -127
-39 -16 0 -32 4 -35 9 -8 12 21 78 38 88 7 4 21 23 30 41 9 17 23 32 30 32 7
0 24 -28 37 -62z m1333 -20 c-10 -13 -20 -25 -21 -27 -2 -2 -3 1 -3 7 0 11 27
42 37 42 3 0 -2 -10 -13 -22z m-325 -118 c1 -13 0 -13 -9 0 -5 8 -9 24 -9 35
l0 20 9 -20 c5 -11 9 -27 9 -35z m41 40 c0 -11 0 -10 11 -57 10 -46 -6 -41
-25 7 -20 50 -20 60 -1 60 8 0 15 -4 15 -10z m-1283 -40 c1 -17 -3 -30 -9 -30
-6 0 -8 -11 -6 -25 4 -17 1 -25 -8 -25 -17 0 -18 49 -2 85 15 33 23 32 25 -5z
m1357 -17 c6 -49 4 -59 -13 -48 -13 7 -15 95 -2 95 4 0 11 -21 15 -47z m63
-18 c4 -41 -12 -48 -20 -8 -5 27 1 58 11 49 2 -3 6 -21 9 -41z m-1719 -21
c-34 -32 -55 -44 -77 -44 -17 0 -31 3 -31 8 0 11 67 62 82 62 7 1 24 7 38 15
42 23 37 6 -12 -41z m962 -124 c0 -18 -64 95 -74 130 -4 14 11 -6 33 -45 22
-38 41 -77 41 -85z m624 94 c3 -8 2 -12 -4 -9 -6 3 -10 10 -10 16 0 14 7 11
14 -7z m47 -6 c1 -13 3 -33 4 -45 1 -13 1 -23 -1 -23 -7 0 -34 59 -34 75 0 24
30 18 31 -7z m47 -9 c-2 -6 -8 -10 -13 -10 -5 0 -11 4 -13 10 -2 6 4 11 13 11
9 0 15 -5 13 -11z m45 -19 c3 -11 1 -20 -4 -20 -5 0 -9 9 -9 20 0 11 2 20 4
20 2 0 6 -9 9 -20z m-1138 -30 c10 -11 26 -22 36 -25 11 -4 19 -11 19 -17 0
-5 -7 -7 -16 -4 -21 8 -73 49 -73 59 -1 13 16 7 34 -13z m116 -97 c6 -16 86
-109 139 -161 25 -24 36 -39 24 -33 -34 17 -188 187 -202 222 l-12 34 23 -25
c13 -14 26 -31 28 -37z m899 25 c0 -12 -6 -9 -26 13 -19 22 -19 22 4 8 12 -8
22 -17 22 -21z m-230 -155 c53 -52 101 -107 108 -126 l11 -32 -21 30 c-12 17
-69 79 -127 140 -124 128 -108 121 29 -12z m-1256 -23 c-13 -27 -24 -51 -24
-53 0 -2 15 -2 34 -1 l34 3 -16 -39 c-18 -41 -34 -55 -25 -20 3 11 3 27 -1 35
-9 24 -75 -11 -69 -36 3 -11 1 -19 -5 -19 -11 0 -24 39 -16 52 3 4 11 8 19 8
20 0 45 40 45 70 0 28 16 50 36 50 8 0 4 -17 -12 -50z m-53 -7 c-12 -20 -14
-14 -5 12 4 9 9 14 11 11 3 -2 0 -13 -6 -23z m132 -98 c-4 -29 -4 -29 11 -11
9 11 16 25 16 32 0 7 4 15 9 19 6 3 5 -10 -1 -31 -12 -45 -4 -53 25 -27 12 11
33 24 47 28 35 10 50 24 50 46 0 17 3 18 20 7 13 -9 16 -14 8 -17 -7 -2 -19
-12 -26 -22 -6 -9 -25 -20 -41 -24 -17 -3 -49 -22 -73 -41 l-43 -34 -18 22
c-14 16 -16 31 -12 67 4 25 9 53 12 61 9 22 21 -38 16 -75z m312 65 c-11 -5
-27 -9 -35 -9 -9 0 -8 4 5 9 11 5 27 9 35 9 9 0 8 -4 -5 -9z m1104 -190 c22
-33 38 -60 36 -60 -2 0 -25 27 -50 60 -25 33 -42 60 -36 60 6 0 28 -27 50 -60z
m-1457 -72 c-8 -8 -15 -8 -26 1 -15 13 -12 34 8 60 9 11 13 8 20 -18 6 -22 6
-35 -2 -43z m1598 -48 c20 -26 30 -46 26 -57 -6 -15 -8 -15 -25 3 -10 10 -31
41 -46 68 -26 44 -26 47 -8 37 12 -6 35 -29 53 -51z m-1680 20 c0 -5 -2 -10
-4 -10 -3 0 -8 5 -11 10 -3 6 -1 10 4 10 6 0 11 -4 11 -10z m-66 -9 c11 -4 15
-10 9 -14 -5 -3 -19 0 -29 8 -20 15 -11 18 20 6z m35 -17 c-7 -9 -36 -26 -64
-39 -27 -13 -70 -44 -94 -69 -24 -25 -48 -46 -53 -46 -5 0 4 11 19 25 l28 24
-37 -6 c-24 -3 -38 -2 -38 5 0 6 -9 14 -21 17 -11 4 -19 9 -17 11 3 2 18 -1
34 -8 36 -13 72 -6 99 20 12 10 43 27 70 37 28 10 57 24 65 32 20 18 25 16 9
-3z m1842 -6 c7 -12 28 -38 48 -56 21 -21 31 -37 24 -39 -7 -2 -9 -11 -6 -19
3 -7 9 -12 13 -9 5 3 11 1 15 -5 3 -5 -3 -10 -14 -10 -22 0 -40 26 -36 52 3
19 -20 43 -52 52 -16 5 -23 15 -23 32 0 30 15 31 31 2z m-1984 -34 c-3 -3 -12
-4 -19 -1 -8 3 -5 6 6 6 11 1 17 -2 13 -5z m-90 -120 c-1 -1 -43 -29 -93 -62
-50 -34 -95 -62 -100 -62 -4 0 1 7 12 15 18 13 18 14 -6 13 -54 -3 -88 3 -93
16 -4 11 1 12 28 3 27 -8 43 -6 87 11 29 12 67 26 83 33 l30 11 -28 11 c-27
11 -25 12 26 12 31 0 55 0 54 -1z m2088 -11 c-4 -10 -10 -48 -12 -85 -7 -79
-23 -81 -23 -3 0 59 13 105 31 105 7 0 8 -7 4 -17z m-2414 -30 c13 -16 12 -17
-3 -4 -10 7 -18 15 -18 17 0 8 8 3 21 -13z m27 -79 c20 -7 29 -13 19 -14 -21
0 -93 35 -103 51 -3 6 5 3 20 -6 14 -10 43 -23 64 -31z m9 30 c-3 -3 -12 -4
-19 -1 -8 3 -5 6 6 6 11 1 17 -2 13 -5z m-111 -29 c16 -8 38 -15 49 -15 11 0
27 -5 35 -10 13 -8 13 -10 -1 -10 -22 0 -80 20 -104 37 -26 17 -14 17 21 -2z
m194 -10 c0 -2 -16 -12 -35 -21 -19 -9 -35 -20 -35 -25 0 -5 -17 -17 -38 -28
-21 -11 -44 -27 -52 -36 -22 -26 -71 -48 -82 -37 -15 15 8 49 39 57 19 4 23 9
14 14 -16 10 8 21 48 21 15 0 32 5 38 11 20 20 103 56 103 44z m2670 -232 c0
-24 -15 -14 -65 43 -88 98 -95 126 -12 44 43 -41 77 -80 77 -87z m-1322 141
c12 -4 22 -10 22 -15 0 -15 -48 -10 -54 6 -6 16 -2 18 32 9z m571 -98 c-21
-46 -39 -91 -39 -99 0 -25 -40 -110 -62 -134 -18 -19 -68 -33 -68 -19 0 2 -3
12 -6 21 -6 15 -4 15 14 4 17 -10 24 -10 46 4 14 10 26 24 26 31 0 8 3 23 7
33 4 10 -7 2 -23 -16 -21 -23 -36 -32 -47 -28 -21 8 -22 27 -3 27 14 0 42 29
78 80 l18 25 -10 -28 c-21 -59 -7 -38 45 71 29 61 56 112 59 112 2 0 -13 -38
-35 -84z"/>
<path d="M3650 5374 c0 -14 5 -24 11 -22 6 2 10 7 10 11 -1 4 -1 14 -1 22 0 8
-4 15 -10 15 -5 0 -10 -12 -10 -26z"/>
<path d="M3176 4844 c-5 -12 3 -27 25 -48 18 -17 26 -22 18 -12 -8 11 -14 30
-14 44 0 30 -20 40 -29 16z"/>
<path d="M3476 4536 c3 -8 13 -17 22 -21 13 -5 13 -2 -3 15 -21 24 -26 25 -19
6z"/>
<path d="M2013 4158 c-15 -17 -14 -18 7 -18 19 0 21 -2 10 -15 -7 -9 -10 -18
-7 -21 5 -5 57 57 57 68 0 13 -53 2 -67 -14z"/>
<path d="M1665 4130 c-3 -5 1 -10 9 -10 9 0 16 5 16 10 0 6 -4 10 -9 10 -6 0
-13 -4 -16 -10z"/>
<path d="M1718 4073 c12 -2 32 -2 45 0 12 2 2 4 -23 4 -25 0 -35 -2 -22 -4z"/>
<path d="M1595 4060 c-16 -7 -13 -9 15 -8 19 0 46 4 60 8 21 7 19 8 -15 8 -22
0 -49 -3 -60 -8z"/>
<path d="M2010 3952 c0 -5 12 -19 27 -33 l26 -24 -19 33 c-17 30 -34 42 -34
24z"/>
<path d="M1670 3898 c0 -4 12 -8 28 -8 15 0 45 -3 67 -6 27 -5 37 -3 30 4 -12
12 -125 22 -125 10z"/>
<path d="M1191 3846 c-24 -19 -51 -46 -59 -61 -13 -26 -11 -25 32 11 38 31 86
86 74 83 -2 0 -23 -15 -47 -33z"/>
<path d="M1930 3870 c-7 -4 -9 -13 -6 -19 10 -16 46 -14 46 3 0 17 -23 27 -40
16z"/>
<path d="M1100 3721 c-12 -24 -13 -34 -1 -27 9 6 22 46 15 46 -2 0 -8 -9 -14
-19z"/>
<path d="M6031 3285 c0 -6 7 -26 15 -45 l14 -35 -5 35 c-5 30 -26 70 -24 45z"/>
</g>
</svg>
